<mxfile host="Electron" modified="2023-10-05T03:42:27.273Z" agent="Mozilla/5.0 (Windows NT 10.0; Win64; x64) AppleWebKit/537.36 (KHTML, like Gecko) draw.io/22.0.2 Chrome/114.0.5735.289 Electron/25.8.4 Safari/537.36" etag="T3aUeD_BsSL1EQ8867wg" version="22.0.2" type="device">
  <diagram name="Page-1" id="Dps0I7_S4gXQSdmRijlO">
    <mxGraphModel dx="1100" dy="851" grid="1" gridSize="10" guides="1" tooltips="1" connect="1" arrows="1" fold="1" page="1" pageScale="1" pageWidth="850" pageHeight="1100" math="0" shadow="0">
      <root>
        <mxCell id="0" />
        <mxCell id="1" parent="0" />
        <mxCell id="24KxXObp-F-Aar9soUN2-1" value="" style="rounded=0;whiteSpace=wrap;html=1;fillColor=#FFFFFF;" parent="1" vertex="1">
          <mxGeometry x="70" y="330" width="690" height="480" as="geometry" />
        </mxCell>
        <mxCell id="24KxXObp-F-Aar9soUN2-14" value="&lt;div style=&quot;text-align: center; font-size: 16px;&quot;&gt;&lt;br&gt;&lt;/div&gt;&lt;div style=&quot;text-align: center; font-size: 16px;&quot;&gt;Property Booking&lt;/div&gt;&lt;div style=&quot;text-align: center; font-size: 16px;&quot;&gt;System&lt;/div&gt;" style="text;strokeColor=none;fillColor=#FFFFFF;align=left;verticalAlign=middle;spacingLeft=4;spacingRight=4;overflow=hidden;points=[[0,0.5],[1,0.5]];portConstraint=eastwest;rotatable=0;whiteSpace=wrap;html=1;fontColor=#000000;rounded=1;fontSize=16;" parent="1" vertex="1">
          <mxGeometry x="350" y="520" width="110" height="110" as="geometry" />
        </mxCell>
        <mxCell id="24KxXObp-F-Aar9soUN2-15" value="&lt;font style=&quot;font-size: 15px;&quot; color=&quot;#000000&quot;&gt;0.0&lt;/font&gt;" style="swimlane;fontStyle=0;childLayout=stackLayout;horizontal=1;startSize=30;horizontalStack=0;resizeParent=1;resizeParentMax=0;resizeLast=0;collapsible=1;marginBottom=0;whiteSpace=wrap;html=1;rounded=1;strokeColor=#000000;fillColor=#ffffff;labelBackgroundColor=none;" parent="1" vertex="1">
          <mxGeometry x="350" y="510" width="110" height="120" as="geometry" />
        </mxCell>
        <mxCell id="24KxXObp-F-Aar9soUN2-22" value="Administrator" style="rounded=0;whiteSpace=wrap;html=1;fillColor=#FFFFFF;strokeColor=#000000;fontColor=#000000;fontSize=14;" parent="1" vertex="1">
          <mxGeometry x="100" y="700" width="110" height="80" as="geometry" />
        </mxCell>
        <mxCell id="24KxXObp-F-Aar9soUN2-24" value="" style="endArrow=classic;html=1;rounded=0;strokeWidth=4;fillColor=#e51400;strokeColor=#000000;entryX=0.75;entryY=0;entryDx=0;entryDy=0;exitX=0;exitY=0.75;exitDx=0;exitDy=0;" parent="1" source="24KxXObp-F-Aar9soUN2-15" target="24KxXObp-F-Aar9soUN2-22" edge="1">
          <mxGeometry width="50" height="50" relative="1" as="geometry">
            <mxPoint x="195" y="500" as="sourcePoint" />
            <mxPoint x="172.5" y="700" as="targetPoint" />
            <Array as="points">
              <mxPoint x="183" y="600" />
            </Array>
          </mxGeometry>
        </mxCell>
        <mxCell id="24KxXObp-F-Aar9soUN2-27" value="Property&lt;br&gt;Owner" style="rounded=0;whiteSpace=wrap;html=1;fillColor=#FFFFFF;strokeColor=#000000;fontColor=#000000;fontSize=14;" parent="1" vertex="1">
          <mxGeometry x="350" y="340" width="110" height="80" as="geometry" />
        </mxCell>
        <mxCell id="24KxXObp-F-Aar9soUN2-28" value="" style="endArrow=classic;html=1;rounded=0;strokeWidth=4;fillColor=#e51400;strokeColor=#000000;entryX=0.25;entryY=1;entryDx=0;entryDy=0;exitX=0.25;exitY=0;exitDx=0;exitDy=0;" parent="1" source="24KxXObp-F-Aar9soUN2-15" target="24KxXObp-F-Aar9soUN2-27" edge="1">
          <mxGeometry width="50" height="50" relative="1" as="geometry">
            <mxPoint x="195" y="500" as="sourcePoint" />
            <mxPoint x="360" y="580" as="targetPoint" />
            <Array as="points" />
          </mxGeometry>
        </mxCell>
        <mxCell id="24KxXObp-F-Aar9soUN2-29" value="" style="endArrow=none;html=1;rounded=0;strokeWidth=4;fillColor=#e51400;strokeColor=#000000;entryX=0.75;entryY=0;entryDx=0;entryDy=0;exitX=0.75;exitY=1;exitDx=0;exitDy=0;startArrow=classic;startFill=1;endFill=0;" parent="1" source="24KxXObp-F-Aar9soUN2-27" target="24KxXObp-F-Aar9soUN2-15" edge="1">
          <mxGeometry width="50" height="50" relative="1" as="geometry">
            <mxPoint x="415" y="520" as="sourcePoint" />
            <mxPoint x="580" y="445" as="targetPoint" />
            <Array as="points">
              <mxPoint x="433" y="460" />
            </Array>
          </mxGeometry>
        </mxCell>
        <mxCell id="24KxXObp-F-Aar9soUN2-31" value="Booking Details" style="text;html=1;align=center;verticalAlign=middle;whiteSpace=wrap;rounded=0;fontColor=#000000;fontStyle=0;fontSize=14;" parent="1" vertex="1">
          <mxGeometry x="430" y="440" width="130" height="50" as="geometry" />
        </mxCell>
        <mxCell id="24KxXObp-F-Aar9soUN2-33" value="Booking Details" style="text;html=1;align=center;verticalAlign=middle;whiteSpace=wrap;rounded=0;fontColor=#000000;fontStyle=0;fontSize=14;" parent="1" vertex="1">
          <mxGeometry x="170" y="590" width="140" height="50" as="geometry" />
        </mxCell>
        <mxCell id="LnXV1hUR1b_tBDLskrJE-2" value="Customer Details" style="text;html=1;align=center;verticalAlign=middle;whiteSpace=wrap;rounded=0;fontColor=#000000;fontStyle=0;fontSize=14;" parent="1" vertex="1">
          <mxGeometry x="240" y="450" width="140" height="30" as="geometry" />
        </mxCell>
        <mxCell id="LnXV1hUR1b_tBDLskrJE-4" value="Customer" style="rounded=0;whiteSpace=wrap;html=1;fillColor=#FFFFFF;strokeColor=#000000;fontColor=#000000;fontSize=14;" parent="1" vertex="1">
          <mxGeometry x="620" y="700" width="110" height="80" as="geometry" />
        </mxCell>
        <mxCell id="LnXV1hUR1b_tBDLskrJE-6" value="" style="endArrow=classic;html=1;rounded=0;strokeWidth=4;fillColor=#e51400;strokeColor=#000000;exitX=1;exitY=0.5;exitDx=0;exitDy=0;entryX=0.25;entryY=1;entryDx=0;entryDy=0;" parent="1" source="24KxXObp-F-Aar9soUN2-22" target="24KxXObp-F-Aar9soUN2-15" edge="1">
          <mxGeometry width="50" height="50" relative="1" as="geometry">
            <mxPoint x="675" y="470" as="sourcePoint" />
            <mxPoint x="380" y="670" as="targetPoint" />
            <Array as="points">
              <mxPoint x="378" y="740" />
            </Array>
          </mxGeometry>
        </mxCell>
        <mxCell id="LnXV1hUR1b_tBDLskrJE-7" value="" style="endArrow=none;html=1;rounded=0;strokeWidth=4;fillColor=#e51400;strokeColor=#000000;exitX=1;exitY=0.75;exitDx=0;exitDy=0;entryX=0.25;entryY=0;entryDx=0;entryDy=0;startArrow=classic;startFill=1;endFill=0;" parent="1" target="LnXV1hUR1b_tBDLskrJE-4" edge="1">
          <mxGeometry width="50" height="50" relative="1" as="geometry">
            <mxPoint x="459" y="600" as="sourcePoint" />
            <mxPoint x="626.5" y="700" as="targetPoint" />
            <Array as="points">
              <mxPoint x="648" y="600" />
            </Array>
          </mxGeometry>
        </mxCell>
        <mxCell id="LnXV1hUR1b_tBDLskrJE-8" value="Confimation Details" style="text;html=1;align=center;verticalAlign=middle;whiteSpace=wrap;rounded=0;fontColor=#000000;fontStyle=0;fontSize=14;" parent="1" vertex="1">
          <mxGeometry x="440" y="695" width="130" height="50" as="geometry" />
        </mxCell>
        <mxCell id="LnXV1hUR1b_tBDLskrJE-9" value="Booking Details" style="text;html=1;align=center;verticalAlign=middle;whiteSpace=wrap;rounded=0;fontColor=#000000;fontStyle=0;fontSize=14;" parent="1" vertex="1">
          <mxGeometry x="520" y="590" width="130" height="50" as="geometry" />
        </mxCell>
        <mxCell id="LnXV1hUR1b_tBDLskrJE-10" value="Confirmation Details" style="text;html=1;align=center;verticalAlign=middle;whiteSpace=wrap;rounded=0;fontColor=#000000;fontStyle=0;fontSize=14;" parent="1" vertex="1">
          <mxGeometry x="230" y="690" width="150" height="60" as="geometry" />
        </mxCell>
        <mxCell id="QjXNIfaINmg5cElkb7Dl-1" value="" style="endArrow=classic;html=1;rounded=0;strokeWidth=4;fillColor=#e51400;strokeColor=#000000;entryX=0.5;entryY=0;entryDx=0;entryDy=0;exitX=0;exitY=0.5;exitDx=0;exitDy=0;" parent="1" source="24KxXObp-F-Aar9soUN2-15" target="24KxXObp-F-Aar9soUN2-22" edge="1">
          <mxGeometry width="50" height="50" relative="1" as="geometry">
            <mxPoint x="320" y="570" as="sourcePoint" />
            <mxPoint x="145" y="700" as="targetPoint" />
            <Array as="points">
              <mxPoint x="155" y="570" />
            </Array>
          </mxGeometry>
        </mxCell>
        <mxCell id="QjXNIfaINmg5cElkb7Dl-2" value="Customer Details" style="text;html=1;align=center;verticalAlign=middle;whiteSpace=wrap;rounded=0;fontColor=#000000;fontStyle=0;fontSize=14;" parent="1" vertex="1">
          <mxGeometry x="140" y="530" width="140" height="50" as="geometry" />
        </mxCell>
        <mxCell id="QjXNIfaINmg5cElkb7Dl-4" value="" style="endArrow=none;html=1;rounded=0;strokeWidth=4;fillColor=#e51400;strokeColor=#000000;exitX=1;exitY=0.5;exitDx=0;exitDy=0;entryX=0.5;entryY=0;entryDx=0;entryDy=0;startArrow=classic;startFill=1;endFill=0;" parent="1" source="24KxXObp-F-Aar9soUN2-15" target="LnXV1hUR1b_tBDLskrJE-4" edge="1">
          <mxGeometry width="50" height="50" relative="1" as="geometry">
            <mxPoint x="615" y="750" as="sourcePoint" />
            <mxPoint x="443" y="640" as="targetPoint" />
            <Array as="points">
              <mxPoint x="675" y="570" />
            </Array>
          </mxGeometry>
        </mxCell>
        <mxCell id="QjXNIfaINmg5cElkb7Dl-5" value="Customer Details" style="text;html=1;align=center;verticalAlign=middle;whiteSpace=wrap;rounded=0;fontColor=#000000;fontStyle=0;fontSize=14;" parent="1" vertex="1">
          <mxGeometry x="550" y="530" width="140" height="50" as="geometry" />
        </mxCell>
        <mxCell id="QjXNIfaINmg5cElkb7Dl-7" value="" style="endArrow=classic;html=1;rounded=0;strokeWidth=4;fillColor=#e51400;strokeColor=#000000;exitX=0.75;exitY=1;exitDx=0;exitDy=0;entryX=0;entryY=0.5;entryDx=0;entryDy=0;" parent="1" source="24KxXObp-F-Aar9soUN2-15" target="LnXV1hUR1b_tBDLskrJE-4" edge="1">
          <mxGeometry width="50" height="50" relative="1" as="geometry">
            <mxPoint x="220" y="750" as="sourcePoint" />
            <mxPoint x="388" y="640" as="targetPoint" />
            <Array as="points">
              <mxPoint x="433" y="740" />
            </Array>
          </mxGeometry>
        </mxCell>
      </root>
    </mxGraphModel>
  </diagram>
</mxfile>
